<svg xmlns="http://www.w3.org/2000/svg" width="64" height="64" viewBox="0 0 64 64">
  <defs>
    <linearGradient id="g" x1="0" y1="0" x2="1" y2="1">
      <stop offset="0" stop-color="#8f6fd6"/>
      <stop offset="1" stop-color="#6a48b3"/>
    </linearGradient>
  </defs>
  <rect width="64" height="64" rx="14" fill="url(#g)"/>
  <path d="M21 16h22a7 7 0 0 1 7 7v10a7 7 0 0 1-7 7h-6l-5 8-5-8h-6a7 7 0 0 1-7-7V23a7 7 0 0 1 7-7z" fill="#ffffff"/>
  <path d="M32 21c.75 4.6 2.4 6.25 7 7-4.6.75-6.25 2.4-7 7-.75-4.6-2.4-6.25-7-7 4.6-.75 6.25-2.4 7-7z" fill="#6a48b3"/>
</svg>
